<?xml version="1.0" encoding="utf-8"?><svg viewBox="0 0 60 60" xmlns="http://www.w3.org/2000/svg" xmlns:xlink="http://www.w3.org/1999/xlink"><style>:root>svg{display:none}:root>svg:target{display:block}</style><svg viewBox="0 0 24 24" id="close" xmlns="http://www.w3.org/2000/svg"><g data-name="Layer 2"><path d="M13.41 12l4.3-4.29a1 1 0 10-1.42-1.42L12 10.59l-4.29-4.3a1 1 0 00-1.42 1.42l4.3 4.29-4.3 4.29a1 1 0 000 1.42 1 1 0 001.42 0l4.29-4.3 4.29 4.3a1 1 0 001.42 0 1 1 0 000-1.42z" data-name="close"/></g></svg><svg viewBox="0 0 45 45" id="fb" xmlns="http://www.w3.org/2000/svg"><path d="M22.5 0C10.125 0 0 10.143 0 22.636 0 33.93 8.235 43.306 18.99 45V29.187h-5.715v-6.552h5.715v-4.992c0-5.67 3.353-8.788 8.505-8.788 2.453 0 5.018.43 5.018.43v5.58h-2.835c-2.79 0-3.668 1.739-3.668 3.524v4.247h6.255l-1.012 6.55H26.01V45a22.477 22.477 0 0013.612-7.658A22.644 22.644 0 0045 22.636C45 10.143 34.875 0 22.5 0z"/></svg><svg viewBox="0 0 45 45" id="icons8-github-60" xmlns="http://www.w3.org/2000/svg"><path d="M15 3C8.373 3 3 8.373 3 15c0 5.623 3.872 10.328 9.092 11.63a1.751 1.751 0 01-.092-.583v-2.051h-1.508c-.821 0-1.551-.353-1.905-1.009-.393-.729-.461-1.844-1.435-2.526-.289-.227-.069-.486.264-.451.615.174 1.125.596 1.605 1.222.478.627.703.769 1.596.769.433 0 1.081-.025 1.691-.121.328-.833.895-1.6 1.588-1.962-3.996-.411-5.903-2.399-5.903-5.098 0-1.162.495-2.286 1.336-3.233-.276-.94-.623-2.857.106-3.587 1.798 0 2.885 1.166 3.146 1.481A8.993 8.993 0 0115.495 9c1.036 0 2.024.174 2.922.483C18.675 9.17 19.763 8 21.565 8c.732.731.381 2.656.102 3.594.836.945 1.328 2.066 1.328 3.226 0 2.697-1.904 4.684-5.894 5.097C18.199 20.49 19 22.1 19 23.313v2.734c0 .104-.023.179-.035.268C23.641 24.676 27 20.236 27 15c0-6.627-5.373-12-12-12z"/></svg><svg viewBox="0 0 50 50" id="icons8-linkedin-black" xmlns="http://www.w3.org/2000/svg"><path d="M41 4H9C6.24 4 4 6.24 4 9v32c0 2.76 2.24 5 5 5h32c2.76 0 5-2.24 5-5V9c0-2.76-2.24-5-5-5zM17 20v19h-6V20h6zm-6-5.53c0-1.4 1.2-2.47 3-2.47s2.93 1.07 3 2.47c0 1.4-1.12 2.53-3 2.53-1.8 0-3-1.13-3-2.53zM39 39h-6V29c0-2-1-4-3.5-4.04h-.08C27 24.96 26 27.02 26 29v10h-6V20h6v2.56S27.93 20 31.81 20c3.97 0 7.19 2.73 7.19 8.26V39z"/></svg><svg viewBox="0 0 21 12" id="link-to" xmlns="http://www.w3.org/2000/svg"><path d="M10.59 1.41L14.17 5H0v2h14.17l-3.59 3.59L12 12l6-6-6-6-1.41 1.41zM19 0v12h2V0h-2z"/></svg><svg viewBox="0 0 16 16" id="next" xmlns="http://www.w3.org/2000/svg"><path d="M8 0C3.5 0 0 3.5 0 8s3.5 8 8 8 8-3.5 8-8-3.5-8-8-8zm1 12v-2H3V6h6V4l5 4-5 4z"/></svg><svg viewBox="0 0 16 16" id="prev" xmlns="http://www.w3.org/2000/svg"><path d="M8 0C3.5 0 0 3.5 0 8s3.5 8 8 8 8-3.5 8-8-3.5-8-8-8zm5 10H7v2L2 8l5-4v2h6v4z"/></svg></svg>